<svg xmlns="http://www.w3.org/2000/svg" xmlns:xlink="http://www.w3.org/1999/xlink" version="1.1" width="256" height="256" viewBox="0 0 256 256" xml:space="preserve">

<defs>
</defs>
<g style="stroke: none; stroke-width: 0; stroke-dasharray: none; stroke-linecap: butt; stroke-linejoin: miter; stroke-miterlimit: 10; fill: none; fill-rule: nonzero; opacity: 1;" transform="translate(1.4065934065934016 1.4065934065934016) scale(2.81 2.81)" >
	<path d="M 77.992 69.198 C 84.624 69.198 90 63.822 90 57.19 v 0 c 0 -6.632 -5.376 -12.008 -12.008 -12.008 h -0.91 c -0.181 -8.256 -6.917 -14.896 -15.216 -14.896 h -2.69 c -8.299 0 -15.035 6.64 -15.216 14.896 h -0.91 c -6.632 0 -12.008 5.376 -12.008 12.008 v 0 c 0 6.632 5.376 12.008 12.008 12.008 H 77.992 z" style="stroke: none; stroke-width: 1; stroke-dasharray: none; stroke-linecap: butt; stroke-linejoin: miter; stroke-miterlimit: 10; fill: rgb(226,239,247); fill-rule: nonzero; opacity: 1;" transform=" matrix(1 0 0 1 0 0) " stroke-linecap="round" />
	<circle cx="48.004" cy="43.294" r="15.814" style="stroke: none; stroke-width: 1; stroke-dasharray: none; stroke-linecap: butt; stroke-linejoin: miter; stroke-miterlimit: 10; fill: rgb(247,183,70); fill-rule: nonzero; opacity: 1;" transform="  matrix(1 0 0 1 0 0) "/>
	<path d="M 48 22.051 c -0.553 0 -1 -0.448 -1 -1 v -7.504 c 0 -0.552 0.447 -1 1 -1 s 1 0.448 1 1 v 7.504 C 49 21.603 48.553 22.051 48 22.051 z" style="stroke: none; stroke-width: 1; stroke-dasharray: none; stroke-linecap: butt; stroke-linejoin: miter; stroke-miterlimit: 10; fill: rgb(247,183,70); fill-rule: nonzero; opacity: 1;" transform=" matrix(1 0 0 1 0 0) " stroke-linecap="round" />
	<path d="M 77.752 44.299 h -7.504 c -0.553 0 -1 -0.448 -1 -1 s 0.447 -1 1 -1 h 7.504 c 0.553 0 1 0.448 1 1 S 78.305 44.299 77.752 44.299 z" style="stroke: none; stroke-width: 1; stroke-dasharray: none; stroke-linecap: butt; stroke-linejoin: miter; stroke-miterlimit: 10; fill: rgb(247,183,70); fill-rule: nonzero; opacity: 1;" transform=" matrix(1 0 0 1 0 0) " stroke-linecap="round" />
	<path d="M 63.731 28.567 c -0.256 0 -0.512 -0.098 -0.707 -0.293 c -0.391 -0.391 -0.391 -1.023 0 -1.414 l 5.307 -5.306 c 0.391 -0.391 1.023 -0.391 1.414 0 s 0.391 1.023 0 1.414 l -5.307 5.306 C 64.243 28.47 63.987 28.567 63.731 28.567 z" style="stroke: none; stroke-width: 1; stroke-dasharray: none; stroke-linecap: butt; stroke-linejoin: miter; stroke-miterlimit: 10; fill: rgb(247,183,70); fill-rule: nonzero; opacity: 1;" transform=" matrix(1 0 0 1 0 0) " stroke-linecap="round" />
	<path d="M 32.268 28.567 c -0.256 0 -0.512 -0.098 -0.707 -0.293 l -5.306 -5.306 c -0.391 -0.391 -0.391 -1.023 0 -1.414 s 1.023 -0.391 1.414 0 l 5.306 5.306 c 0.391 0.391 0.391 1.023 0 1.414 C 32.78 28.47 32.524 28.567 32.268 28.567 z" style="stroke: none; stroke-width: 1; stroke-dasharray: none; stroke-linecap: butt; stroke-linejoin: miter; stroke-miterlimit: 10; fill: rgb(247,183,70); fill-rule: nonzero; opacity: 1;" transform=" matrix(1 0 0 1 0 0) " stroke-linecap="round" />
	<path d="M 29.818 49.517 c 3.467 0 6.277 -2.81 6.277 -6.277 v 0 c 0 -3.466 -2.81 -6.277 -6.277 -6.277 h -0.476 c -0.095 -4.315 -3.616 -7.786 -7.954 -7.786 h -1.406 c -4.338 0 -7.859 3.471 -7.954 7.786 h -0.476 c -3.466 0 -6.277 2.81 -6.277 6.277 v 0 c 0 3.467 2.81 6.277 6.277 6.277 H 29.818 z" style="stroke: none; stroke-width: 1; stroke-dasharray: none; stroke-linecap: butt; stroke-linejoin: miter; stroke-miterlimit: 10; fill: rgb(226,239,247); fill-rule: nonzero; opacity: 1;" transform=" matrix(1 0 0 1 0 0) " stroke-linecap="round" />
	<path d="M 56.124 54.306 h -5.101 c -0.292 -4.113 -3.713 -7.361 -7.901 -7.361 c -0.935 0 -1.828 0.17 -2.661 0.467 c -2.451 -4.094 -6.915 -6.843 -12.036 -6.843 h -2.481 c -7.653 0 -13.865 6.124 -14.032 13.737 h -0.84 C 4.958 54.306 0 59.264 0 65.38 v 0 c 0 6.116 4.958 11.073 11.073 11.073 h 31.385 h 0.84 h 12.827 c 6.116 0 11.073 -4.958 11.073 -11.073 S 62.24 54.306 56.124 54.306 z" style="stroke: none; stroke-width: 1; stroke-dasharray: none; stroke-linecap: butt; stroke-linejoin: miter; stroke-miterlimit: 10; fill: rgb(187,217,249); fill-rule: nonzero; opacity: 1;" transform=" matrix(1 0 0 1 0 0) " stroke-linecap="round" />
</g>
</svg>